HIERARCHY
ROOT Hips
{
	OFFSET 0.000000 0.000000 0.000000
	CHANNELS 6 Xposition Yposition Zposition Zrotation Yrotation Xrotation 
	JOINT LHipJoint
	{
		OFFSET 0.000000 0.000000 0.000000
		CHANNELS 3 Zrotation Yrotation Xrotation
		JOINT LeftUpLeg
		{
			OFFSET 1.363060 -1.794630 0.839290
			CHANNELS 3 Zrotation Yrotation Xrotation
			JOINT LeftLeg
			{
				OFFSET 2.448110 -6.726130 0.000000
				CHANNELS 3 Zrotation Yrotation Xrotation
				JOINT LeftFoot
				{
					OFFSET 2.562200 -7.039590 0.000000
					CHANNELS 3 Zrotation Yrotation Xrotation
					JOINT LeftToeBase
					{
						OFFSET 0.157640 -0.433110 2.322550
						CHANNELS 3 Zrotation Yrotation Xrotation
						End Site
						{
							OFFSET 0.000000 0.000000 0.000000
						}
					}
				}
			}
		}
	}
	JOINT RHipJoint
	{
		OFFSET 0.000000 0.000000 0.000000
		CHANNELS 3 Zrotation Yrotation Xrotation
		JOINT RightUpLeg
		{
			OFFSET -1.305520 -1.794630 0.839290
			CHANNELS 3 Zrotation Yrotation Xrotation
			JOINT RightLeg
			{
				OFFSET -2.542530 -6.985550 0.000000
				CHANNELS 3 Zrotation Yrotation Xrotation
				JOINT RightFoot
				{
					OFFSET -2.568260 -7.056230 0.000000
					CHANNELS 3 Zrotation Yrotation Xrotation
					JOINT RightToeBase
					{
						OFFSET -0.164730 -0.452590 2.363150
						CHANNELS 3 Zrotation Yrotation Xrotation
						End Site
						{
							OFFSET 0.000000 0.000000 0.000000
						}
					}
				}
			}
		}
	}
}
MOTION
Frames: 16
Frame Time: 0.008333
13.575200 17.312127 2.013193 -162.635744 -84.455478 -177.786315 -12.073938 6.686135 1.194606 -4.658567 14.579577 2.724114 -0.752719 1.065788 15.648940 1.778069 12.070832 20.141099 4.952700 0.000000 -37.258300 7.756286 -1.393920 6.478252 14.738406 14.065842 -37.987563 2.358095 -0.832585 25.011317 -0.520562 -1.681129 -2.932863 -0.705500 0.000000 -32.428500
13.352598 17.227854 1.982864 -167.271071 -84.267283 -173.576391 -12.169371 6.685333 1.052643 -4.521870 14.944168 2.564660 -0.656543 1.184611 18.448518 1.922201 13.303296 19.102266 5.299701 -0.000000 -36.228500 7.659484 -1.344059 6.308003 14.833478 14.153495 -37.703287 2.164649 -0.999668 27.732574 -0.755378 -2.121036 -5.356537 -0.542900 -0.000000 -27.615800
13.131890 17.134858 1.951676 -171.777808 -84.128961 -169.553032 -12.259095 6.664120 0.873885 -4.291246 15.528479 2.325291 -0.565460 1.308175 21.389382 2.038195 14.248879 18.139615 5.500899 0.000000 -35.754201 7.602643 -1.311307 6.121972 14.881846 14.111159 -37.395269 1.997678 -1.181852 30.606248 -0.964516 -2.348672 -8.010031 -0.300299 -0.000000 -22.939700
12.912957 17.034519 1.920446 -175.802301 -84.006197 -166.052256 -12.330150 6.624174 0.661009 -3.945587 16.313673 1.989591 -0.478170 1.437102 24.467280 2.131139 14.972450 17.210253 5.587300 -0.000000 -35.691600 7.597702 -1.294720 5.929438 14.926162 13.945498 -37.046795 1.868901 -1.372660 33.517618 -1.144429 -2.389688 -10.801049 -0.014200 0.000000 -18.598500
12.695760 16.928578 1.890118 -179.036094 -83.855773 -163.360040 -12.381482 6.572342 0.420941 -3.482354 17.266087 1.531808 -0.397533 1.574652 27.679895 2.208641 15.550480 16.256874 5.586700 -0.000000 -35.817700 7.642651 -1.290376 5.740086 15.002213 13.679453 -36.646639 1.780799 -1.563210 36.357192 -1.294717 -2.283410 -13.610663 0.276800 0.000000 -15.029300
12.480077 16.819159 1.861597 178.703270 -83.641705 -161.633388 -12.420166 6.515636 0.167289 -2.926309 18.322758 0.934151 -0.324835 1.723860 31.006523 2.280995 16.079292 15.247117 5.535300 -0.000000 -36.057200 7.722256 -1.294358 5.559772 15.135144 13.335032 -36.191488 1.733961 -1.743361 39.046617 -1.419806 -2.052319 -16.400878 0.548200 0.000000 -12.015900
12.265824 16.708507 1.835701 177.520820 -83.338282 -160.950916 -12.455677 6.458708 -0.087041 -2.307584 19.427145 0.166424 -0.261991 1.888518 34.437532 2.354335 16.620385 14.132757 5.446500 -0.000000 -36.206700 7.817434 -1.305538 5.398286 15.340657 12.948861 -35.686072 1.721728 -1.904521 41.511584 -1.526293 -1.737362 -19.087727 0.779600 -0.000000 -9.740600
12.052780 16.599078 1.812960 177.377138 -82.934416 -161.247226 -12.493376 6.402308 -0.328141 -1.668926 20.514206 -0.795391 -0.207629 2.070847 37.953758 2.432770 17.215053 12.882697 5.325300 -0.000000 -36.117200 7.911128 -1.324601 5.263963 15.624402 12.554176 -35.139601 1.738417 -2.040830 43.701880 -1.622001 -1.368967 -21.634134 0.963900 -0.000000 -8.068600
11.840895 16.493275 1.793563 178.116019 -82.431377 -162.345286 -12.533164 6.343434 -0.543904 -1.058463 21.520594 -1.972325 -0.157723 2.271339 41.531359 2.517601 17.873785 11.479892 5.165000 -0.000000 -35.675800 7.992109 -1.353545 5.164340 15.981823 12.181923 -34.563179 1.778619 -2.149799 45.580140 -1.713318 -0.975014 -24.007906 1.101100 0.000000 -6.835900
11.630080 16.393484 1.777365 179.488961 -81.841593 -163.978605 -12.571868 6.276468 -0.724222 -0.527957 22.386402 -3.379488 -0.105787 2.487608 45.140085 2.607936 18.580438 9.925915 4.952001 -0.000000 -34.835100 8.054406 -1.395994 5.105304 16.396756 11.857615 -33.968025 1.837378 -2.231898 47.119824 -1.802900 -0.577458 -26.171861 1.194800 0.000000 -6.005500
11.420285 16.301860 1.763916 -178.764606 -81.184917 -165.875842 -12.606992 6.194665 -0.862429 -0.120415 23.063375 -5.024694 -0.044873 2.714825 48.744946 2.700702 19.294724 8.235198 4.669700 0.000001 -33.581699 8.094077 -1.454933 5.089691 16.847543 11.601892 -33.360416 1.912329 -2.288791 48.307181 -1.891934 -0.188035 -28.116575 1.251800 -0.000000 -5.305400
11.211425 16.220303 1.752566 -176.904095 -80.487435 -167.771068 -12.638605 6.091572 -0.953947 0.126629 23.511379 -6.907059 0.031244 2.945589 52.305210 2.791804 19.966779 6.437456 4.307300 -0.000000 -31.990500 8.108674 -1.532922 5.117485 17.303521 11.427808 -32.745135 2.000320 -2.322577 49.136431 -1.977463 0.187697 -29.817468 1.276600 -0.000000 -4.714000
11.003344 16.150352 1.742606 -175.104899 -79.775747 -169.487407 -12.668788 5.962747 -0.996443 0.194029 23.703558 -9.016830 0.125861 3.172074 55.777821 2.876264 20.543412 4.567865 3.861799 0.000000 -30.172800 8.096547 -1.629316 5.186649 17.736020 11.346215 -32.122621 2.098831 -2.334186 49.610575 -2.055784 0.549214 -31.262212 1.273300 -0.000000 -4.127400
10.796026 16.093248 1.733227 -173.535556 -79.078745 -170.865775 -12.699227 5.805266 -0.990520 0.070544 23.621269 -11.325336 0.239399 3.385922 59.114043 2.948808 20.977634 2.654284 3.337899 0.000000 -28.173900 8.059749 -1.741487 5.289261 18.107853 11.351195 -31.488587 2.204574 -2.324368 49.743124 -2.120253 0.904727 -32.435681 1.242100 0.000000 -3.588200
10.589220 16.049762 1.723914 -172.235768 -78.421545 -171.876744 -12.730169 5.618570 -0.937130 -0.227600 23.257737 -13.796596 0.368573 3.580437 62.266475 3.004404 21.231606 0.718486 2.747700 0.000000 -26.049200 8.002265 -1.864117 5.417726 18.397442 11.437775 -30.835848 2.314753 -2.292725 49.552045 -2.165871 1.258915 -33.332095 1.184400 0.000000 -3.105000
10.382634 16.020407 1.714399 -171.213538 -77.827832 -172.529406 -12.759794 5.402824 -0.838092 -0.669501 22.613312 -16.381992 0.507652 3.749715 65.186074 3.039172 21.282953 -1.227465 2.108900 0.000000 -23.820400 7.930710 -1.991655 5.561751 18.589164 11.590229 -30.153524 2.426481 -2.239109 49.059678 -2.187997 1.615146 -33.947594 1.101800 0.000000 -2.748000
